<svg fill="rgb(135,116,225)" viewBox="0 0 256 256" id="Flat" xmlns="http://www.w3.org/2000/svg" stroke="rgb(135,116,225)">
<g id="SVGRepo_bgCarrier" stroke-width="0"></g><g id="SVGRepo_tracerCarrier" stroke-linecap="round" stroke-linejoin="round"></g><g id="SVGRepo_iconCarrier">
<g opacity="0.4"> <path d="M98.34315,50.34315,128,80H32V56a8,8,0,0,1,8-8H92.68629A8,8,0,0,1,98.34315,50.34315Z"></path> </g>
 <g> <path d="M216,72H131.31348L104,44.68652A15.89557,15.89557,0,0,0,92.68652,40H40A16.01833,16.01833,0,0,0,24,56V200.61523A15.40193,15.40193,0,0,0,39.38477,216h177.5039A15.12831,15.12831,0,0,0,232,200.88867V88A16.01833,16.01833,0,0,0,216,72ZM92.68652,56l16,16H40V56ZM216,200H40V88H216Z"></path> 
 <path d="M96,144a8.00008,8.00008,0,0,0,8,8h48a8,8,0,0,0,0-16H104A8.00008,8.00008,0,0,0,96,144Z"></path> </g> </g></svg>